<mxfile host="65bd71144e">
    <diagram id="4X7HDe9g6C58yq_gmeN1" name="Página-1">
        <mxGraphModel dx="845" dy="1139" grid="1" gridSize="10" guides="1" tooltips="1" connect="1" arrows="1" fold="1" page="1" pageScale="1" pageWidth="827" pageHeight="1169" background="none" math="0" shadow="0">
            <root>
                <mxCell id="0"/>
                <mxCell id="1" parent="0"/>
                <mxCell id="5" value="Edificos" style="text;html=1;align=center;verticalAlign=middle;resizable=0;points=[];autosize=1;strokeColor=none;fillColor=none;" parent="1" vertex="1">
                    <mxGeometry x="60" y="261" width="60" height="26" as="geometry"/>
                </mxCell>
                <mxCell id="6" value="Basico" style="text;html=1;align=center;verticalAlign=middle;resizable=0;points=[];autosize=1;strokeColor=none;fillColor=none;" parent="1" vertex="1">
                    <mxGeometry x="160" y="229" width="60" height="30" as="geometry"/>
                </mxCell>
                <mxCell id="7" value="Normal" style="text;html=1;align=center;verticalAlign=middle;resizable=0;points=[];autosize=1;strokeColor=none;fillColor=none;" parent="1" vertex="1">
                    <mxGeometry x="160" y="259" width="60" height="30" as="geometry"/>
                </mxCell>
                <mxCell id="8" value="Lujo" style="text;html=1;align=center;verticalAlign=middle;resizable=0;points=[];autosize=1;strokeColor=none;fillColor=none;" parent="1" vertex="1">
                    <mxGeometry x="165" y="291" width="50" height="30" as="geometry"/>
                </mxCell>
                <mxCell id="14" value="5" style="text;html=1;align=center;verticalAlign=middle;resizable=0;points=[];autosize=1;strokeColor=none;fillColor=none;" parent="1" vertex="1">
                    <mxGeometry x="75" y="229" width="30" height="30" as="geometry"/>
                </mxCell>
                <mxCell id="15" value="20" style="text;html=1;align=center;verticalAlign=middle;resizable=0;points=[];autosize=1;strokeColor=none;fillColor=none;" parent="1" vertex="1">
                    <mxGeometry x="170" y="199" width="40" height="30" as="geometry"/>
                </mxCell>
                <mxCell id="16" value="Editar Edificio" style="rounded=1;whiteSpace=wrap;html=1;" parent="1" vertex="1">
                    <mxGeometry x="260" y="84" width="120" height="60" as="geometry"/>
                </mxCell>
                <mxCell id="17" value="Listar Edificios" style="rounded=1;whiteSpace=wrap;html=1;" parent="1" vertex="1">
                    <mxGeometry x="260" y="164" width="120" height="60" as="geometry"/>
                </mxCell>
                <mxCell id="18" value="Apartamentos Disponibles" style="rounded=1;whiteSpace=wrap;html=1;" parent="1" vertex="1">
                    <mxGeometry x="260" y="244" width="120" height="60" as="geometry"/>
                </mxCell>
                <mxCell id="20" value="Reservar Apartamento" style="rounded=1;whiteSpace=wrap;html=1;" parent="1" vertex="1">
                    <mxGeometry x="260" y="324" width="120" height="60" as="geometry"/>
                </mxCell>
                <mxCell id="21" value="Reservas Mensuales de Apartamento" style="rounded=1;whiteSpace=wrap;html=1;" parent="1" vertex="1">
                    <mxGeometry x="260" y="404" width="120" height="60" as="geometry"/>
                </mxCell>
                <mxCell id="22" value="&lt;div&gt;Identificador&lt;/div&gt;&lt;div&gt;Nombre&lt;/div&gt;&lt;div&gt;Nº de Apartamentos Basicos&lt;/div&gt;&lt;div&gt;Nº de Apartamentos Normales&lt;/div&gt;&lt;div&gt;Nº de Apartamentos Lujo&lt;/div&gt;" style="text;html=1;whiteSpace=wrap;overflow=hidden;rounded=0;strokeColor=default;" parent="1" vertex="1">
                    <mxGeometry x="440" y="20" width="180" height="80" as="geometry"/>
                </mxCell>
                <mxCell id="23" value="" style="curved=1;endArrow=classic;html=1;entryX=0;entryY=0.5;entryDx=0;entryDy=0;exitX=1;exitY=0.5;exitDx=0;exitDy=0;" parent="1" source="16" target="22" edge="1">
                    <mxGeometry width="50" height="50" relative="1" as="geometry">
                        <mxPoint x="380" y="110" as="sourcePoint"/>
                        <mxPoint x="430" y="60" as="targetPoint"/>
                        <Array as="points">
                            <mxPoint x="430" y="110"/>
                            <mxPoint x="380" y="60"/>
                        </Array>
                    </mxGeometry>
                </mxCell>
                <mxCell id="24" value="&lt;div&gt;ID&lt;/div&gt;&lt;div&gt;NOMBRE&lt;/div&gt;&lt;div&gt;APTOS BASICOS&lt;/div&gt;&lt;div&gt;APTOS NORMALES&lt;/div&gt;&lt;div&gt;APTOS LUJO&lt;/div&gt;" style="text;html=1;whiteSpace=wrap;overflow=hidden;rounded=0;strokeColor=default;" parent="1" vertex="1">
                    <mxGeometry x="440" y="144" width="180" height="80" as="geometry"/>
                </mxCell>
                <mxCell id="26" value="" style="endArrow=classic;html=1;entryX=0;entryY=0.5;entryDx=0;entryDy=0;" parent="1" target="24" edge="1">
                    <mxGeometry width="50" height="50" relative="1" as="geometry">
                        <mxPoint x="380" y="200" as="sourcePoint"/>
                        <mxPoint x="430" y="150" as="targetPoint"/>
                    </mxGeometry>
                </mxCell>
                <mxCell id="27" value="ID/FECHAENTRADA/DURACIONESTANCIA&lt;div&gt;&lt;br&gt;&lt;/div&gt;&lt;div&gt;Listas cuantos apts de cada tipo tiene el edificio con ese id&lt;/div&gt;" style="text;html=1;whiteSpace=wrap;overflow=hidden;rounded=0;strokeColor=default;" parent="1" vertex="1">
                    <mxGeometry x="440" y="234" width="250" height="80" as="geometry"/>
                </mxCell>
                <mxCell id="28" value="" style="endArrow=classic;html=1;entryX=0;entryY=0.5;entryDx=0;entryDy=0;" parent="1" target="27" edge="1">
                    <mxGeometry width="50" height="50" relative="1" as="geometry">
                        <mxPoint x="380" y="270" as="sourcePoint"/>
                        <mxPoint x="430" y="220" as="targetPoint"/>
                    </mxGeometry>
                </mxCell>
                <mxCell id="29" value="ID/TIPOAPTO/FECHAENTRADA/DURACIONESTANCIA&lt;div&gt;&lt;br&gt;&lt;/div&gt;&lt;div&gt;DATOS DE RESERVA:&amp;nbsp;&lt;/div&gt;&lt;div&gt;&lt;br&gt;&lt;/div&gt;&lt;div&gt;NºRESERVA/EDIFICIO(ID)/REFERENCIAAPTO/ENTRADA/SALIDA&lt;/div&gt;" style="text;html=1;whiteSpace=wrap;overflow=hidden;rounded=0;strokeColor=default;" parent="1" vertex="1">
                    <mxGeometry x="440" y="321" width="370" height="80" as="geometry"/>
                </mxCell>
                <mxCell id="30" value="Calendario con las reservas mensuales de un apartamento específico" style="text;html=1;whiteSpace=wrap;overflow=hidden;rounded=0;strokeColor=default;" parent="1" vertex="1">
                    <mxGeometry x="440" y="414" width="370" height="40" as="geometry"/>
                </mxCell>
                <mxCell id="31" value="" style="endArrow=classic;html=1;entryX=0;entryY=0.5;entryDx=0;entryDy=0;" parent="1" target="29" edge="1">
                    <mxGeometry width="50" height="50" relative="1" as="geometry">
                        <mxPoint x="380" y="360" as="sourcePoint"/>
                        <mxPoint x="430" y="310" as="targetPoint"/>
                    </mxGeometry>
                </mxCell>
                <mxCell id="32" value="" style="endArrow=classic;html=1;entryX=0;entryY=0.5;entryDx=0;entryDy=0;" parent="1" target="30" edge="1">
                    <mxGeometry width="50" height="50" relative="1" as="geometry">
                        <mxPoint x="380" y="440" as="sourcePoint"/>
                        <mxPoint x="430" y="390" as="targetPoint"/>
                    </mxGeometry>
                </mxCell>
                <mxCell id="43" value="" style="group" parent="1" vertex="1" connectable="0">
                    <mxGeometry x="90" y="510" width="200" height="200" as="geometry"/>
                </mxCell>
                <mxCell id="35" value="Clases" style="swimlane;whiteSpace=wrap;html=1;swimlaneLine=1;rounded=0;shadow=0;glass=0;swimlaneFillColor=none;startSize=30;" parent="43" vertex="1">
                    <mxGeometry width="200" height="200" as="geometry">
                        <mxRectangle x="90" y="510" width="80" height="30" as="alternateBounds"/>
                    </mxGeometry>
                </mxCell>
                <mxCell id="41" value="Imprimir(documento:Documento)&lt;div&gt;//Funcion con argumento que lo enlaza con otra clase&lt;/div&gt;" style="rounded=0;whiteSpace=wrap;html=1;" parent="43" vertex="1">
                    <mxGeometry y="110" width="200" height="90" as="geometry"/>
                </mxCell>
                <mxCell id="42" value="" style="rounded=0;whiteSpace=wrap;html=1;" parent="43" vertex="1">
                    <mxGeometry y="30" width="200" height="80" as="geometry"/>
                </mxCell>
                <mxCell id="44" value="Documento" style="swimlane;whiteSpace=wrap;html=1;startSize=30;" parent="1" vertex="1">
                    <mxGeometry x="413" y="510" width="200" height="200" as="geometry"/>
                </mxCell>
                <mxCell id="45" value="+getTexto():String" style="rounded=0;whiteSpace=wrap;html=1;" parent="44" vertex="1">
                    <mxGeometry y="110" width="200" height="90" as="geometry"/>
                </mxCell>
                <mxCell id="46" value="-Texto: String" style="rounded=0;whiteSpace=wrap;html=1;" parent="44" vertex="1">
                    <mxGeometry y="30" width="200" height="80" as="geometry"/>
                </mxCell>
                <mxCell id="47" value="Documento" style="swimlane;whiteSpace=wrap;html=1;startSize=30;" parent="1" vertex="1">
                    <mxGeometry x="90" y="740" width="200" height="200" as="geometry"/>
                </mxCell>
                <mxCell id="48" value="" style="rounded=0;whiteSpace=wrap;html=1;" parent="47" vertex="1">
                    <mxGeometry y="110" width="200" height="90" as="geometry"/>
                </mxCell>
                <mxCell id="49" value="" style="rounded=0;whiteSpace=wrap;html=1;" parent="47" vertex="1">
                    <mxGeometry y="30" width="200" height="80" as="geometry"/>
                </mxCell>
                <mxCell id="50" value="" style="endArrow=openThin;html=1;entryX=0;entryY=1;entryDx=0;entryDy=0;flowAnimation=0;dashed=1;endFill=0;" parent="1" target="46" edge="1">
                    <mxGeometry width="50" height="50" relative="1" as="geometry">
                        <mxPoint x="290" y="620" as="sourcePoint"/>
                        <mxPoint x="340" y="570" as="targetPoint"/>
                    </mxGeometry>
                </mxCell>
                <mxCell id="51" value="A Usa B" style="text;html=1;align=center;verticalAlign=middle;resizable=0;points=[];autosize=1;strokeColor=none;fillColor=none;" parent="1" vertex="1">
                    <mxGeometry x="305" y="588" width="70" height="30" as="geometry"/>
                </mxCell>
                <mxCell id="52" value="" style="endArrow=block;html=1;endFill=0;entryX=0;entryY=0.5;entryDx=0;entryDy=0;exitX=1;exitY=0.75;exitDx=0;exitDy=0;" parent="1" source="35" target="45" edge="1">
                    <mxGeometry width="50" height="50" relative="1" as="geometry">
                        <mxPoint x="290" y="670" as="sourcePoint"/>
                        <mxPoint x="390" y="670" as="targetPoint"/>
                        <Array as="points"/>
                    </mxGeometry>
                </mxCell>
                <mxCell id="54" value="A es heredero de B" style="text;html=1;align=center;verticalAlign=middle;resizable=0;points=[];autosize=1;strokeColor=none;fillColor=none;" parent="1" vertex="1">
                    <mxGeometry x="283" y="630" width="130" height="30" as="geometry"/>
                </mxCell>
                <mxCell id="55" value="" style="endArrow=block;html=1;entryX=0;entryY=0.25;entryDx=0;entryDy=0;dashed=1;endFill=0;" parent="1" target="46" edge="1">
                    <mxGeometry width="50" height="50" relative="1" as="geometry">
                        <mxPoint x="290" y="560" as="sourcePoint"/>
                        <mxPoint x="340" y="510" as="targetPoint"/>
                    </mxGeometry>
                </mxCell>
                <mxCell id="56" value="A usa la interfaz B" style="text;html=1;align=center;verticalAlign=middle;resizable=0;points=[];autosize=1;strokeColor=none;fillColor=none;" parent="1" vertex="1">
                    <mxGeometry x="290" y="528" width="120" height="30" as="geometry"/>
                </mxCell>
                <mxCell id="57" value="Caso de Uso" style="ellipse;whiteSpace=wrap;html=1;" parent="1" vertex="1">
                    <mxGeometry x="560" y="790" width="120" height="80" as="geometry"/>
                </mxCell>
                <mxCell id="58" value="" style="shape=actor;whiteSpace=wrap;html=1;" parent="1" vertex="1">
                    <mxGeometry x="440" y="800" width="40" height="60" as="geometry"/>
                </mxCell>
                <mxCell id="59" value="" style="endArrow=classic;html=1;entryX=0;entryY=0.5;entryDx=0;entryDy=0;" parent="1" target="57" edge="1">
                    <mxGeometry width="50" height="50" relative="1" as="geometry">
                        <mxPoint x="490" y="840" as="sourcePoint"/>
                        <mxPoint x="540" y="790" as="targetPoint"/>
                    </mxGeometry>
                </mxCell>
                <mxCell id="64" value="En los propios caso de uso pueden conectarse unos con otros mediante relaciones de &quot;Extension&quot; cuando dependen de que haya ocurrido eso, por ejemplo, para realizar una accion hay que iniciar sesion primero, y luego está la relacion &quot;Include&quot;, donde el realizar una accion si o si incluye la realizacion de otra, retirar dinero y actualizar el saldo." style="text;html=1;whiteSpace=wrap;overflow=hidden;rounded=0;strokeColor=none;" parent="1" vertex="1">
                    <mxGeometry x="420" y="910" width="370" height="100" as="geometry"/>
                </mxCell>
                <mxCell id="65" value="Entiendo que tiene que crear el edificio gracias a los datos del cliente y meterlos en la base de datos de edificios. Estos datos se pueden mostrar a través de una selección y se envian al cliente. Por otro lado, el cliente realiza una reserva de apartamento, con sus datos, y esto genera un &quot;pedido&quot;, que se almacena en la base de datos del pedido y va con los datos de la base de datos del cliente" style="text;html=1;align=center;verticalAlign=middle;whiteSpace=wrap;rounded=0;" vertex="1" parent="1">
                    <mxGeometry x="15" y="20" width="235" height="170" as="geometry"/>
                </mxCell>
            </root>
        </mxGraphModel>
    </diagram>
</mxfile>